<svg xmlns="http://www.w3.org/2000/svg" width="880" height="256" viewBox="0 0 880 256" lang="zh-CN" role="img" aria-label="依赖 — table">
  <defs>
    <linearGradient id="brand" x1="0" y1="0" x2="1" y2="1">
      <stop offset="0" stop-color="#7d56f4"/>
      <stop offset="0.55" stop-color="#ff5fd1"/>
      <stop offset="1" stop-color="#43e5d0"/>
    </linearGradient>
  </defs>
  <style>
    .t { font-family: ui-monospace, SFMono-Regular, "SF Mono", Menlo, Consolas, "Liberation Mono", "Noto Sans Mono CJK SC", "Noto Sans Mono CJK JP", "Microsoft YaHei", "Hiragino Sans", "Yu Gothic", monospace; }
  </style>
  <rect x="0" y="0" width="880" height="256" rx="18.0" fill="#1a1a24"/>
  <rect x="0.5" y="0.5" width="879" height="255" rx="17.5" fill="none" stroke="#35334a"/>
  <text class="t" x="28" y="38" font-size="11" fill="#8b87a3" text-anchor="start" letter-spacing="1.4">依赖</text>
  <text class="t" x="28" y="68" font-size="11" fill="#8b87a3" text-anchor="start" letter-spacing="1.4">依赖</text>
  <text class="t" x="173" y="68" font-size="11" fill="#8b87a3" text-anchor="start" letter-spacing="1.4">何时需要</text>
  <text class="t" x="540" y="68" font-size="11" fill="#8b87a3" text-anchor="start" letter-spacing="1.4">装法</text>
  <rect x="28" y="78" width="824" height="1" fill="#35334a"/>
  <text class="t" x="28" y="102" font-size="13" fill="#edebfa" text-anchor="start">Node ≥ 20</text>
  <text class="t" x="173" y="102" font-size="13" fill="#edebfa" text-anchor="start">用统一入口 gen.mjs、批量、闭环、视频合成</text>
  <text class="t" x="540" y="102" font-size="13" fill="#edebfa" text-anchor="start">已有即可</text>
  <rect x="20" y="113" width="840" height="35" rx="5.0" fill="#222130"/>
  <text class="t" x="28" y="137" font-size="13" fill="#edebfa" text-anchor="start">任一后端的 key</text>
  <text class="t" x="173" y="137" font-size="13" fill="#edebfa" text-anchor="start">真正出图</text>
  <text class="t" x="540" y="137" font-size="13" fill="#edebfa" text-anchor="start">dlazy login，或设 OPENAIAPIKEY 等，见下</text>
  <text class="t" x="28" y="172" font-size="13" fill="#edebfa" text-anchor="start">Python + Pillow</text>
  <text class="t" x="173" y="172" font-size="13" fill="#edebfa" text-anchor="start">平台合规校验</text>
  <rect x="540" y="159" width="142" height="19" rx="4.0" fill="#222130"/>
  <text class="t" x="546" y="172" font-size="12" fill="#edebfa" text-anchor="start">pip install Pillow</text>
  <rect x="20" y="183" width="840" height="35" rx="5.0" fill="#222130"/>
  <text class="t" x="28" y="207" font-size="13" fill="#edebfa" text-anchor="start">ffmpeg</text>
  <text class="t" x="173" y="207" font-size="13" fill="#edebfa" text-anchor="start">视频拼接与字幕</text>
  <rect x="540" y="194" width="149" height="19" rx="4.0" fill="#222130"/>
  <text class="t" x="546" y="207" font-size="12" fill="#edebfa" text-anchor="start">brew install ffmpeg</text>
  <rect x="28" y="218" width="824" height="1" fill="#35334a"/>
</svg>
