<svg xmlns="http://www.w3.org/2000/svg" width="880" height="221" viewBox="0 0 880 221" lang="en" role="img" aria-label="商品上身 — 让商品出现在人身上 — table">
  <defs>
    <linearGradient id="brand" x1="0" y1="0" x2="1" y2="1">
      <stop offset="0" stop-color="#7d56f4"/>
      <stop offset="0.55" stop-color="#ff5fd1"/>
      <stop offset="1" stop-color="#43e5d0"/>
    </linearGradient>
  </defs>
  <style>
    .t { font-family: ui-monospace, SFMono-Regular, "SF Mono", Menlo, Consolas, "Liberation Mono", "Noto Sans Mono CJK SC", "Noto Sans Mono CJK JP", "Microsoft YaHei", "Hiragino Sans", "Yu Gothic", monospace; }
  </style>
  <rect x="0" y="0" width="880" height="221" rx="18.0" fill="#1a1a24"/>
  <rect x="0.5" y="0.5" width="879" height="220" rx="17.5" fill="none" stroke="#35334a"/>
  <text class="t" x="28" y="38" font-size="11" fill="#8b87a3" text-anchor="start" letter-spacing="1.4">商品上身 — 让商品出现在人身上</text>
  <text class="t" x="28" y="68" font-size="11" fill="#8b87a3" text-anchor="start" letter-spacing="1.4">技能</text>
  <text class="t" x="173" y="68" font-size="11" fill="#8b87a3" text-anchor="start" letter-spacing="1.4">做什么</text>
  <text class="t" x="341" y="68" font-size="11" fill="#8b87a3" text-anchor="start" letter-spacing="1.4">输入 → 输出</text>
  <text class="t" x="746" y="68" font-size="11" fill="#8b87a3" text-anchor="start" letter-spacing="1.4">模型</text>
  <rect x="28" y="78" width="824" height="1" fill="#35334a"/>
  <text class="t" x="28" y="102" font-size="13" fill="#edebfa" text-anchor="start">flat-lay</text>
  <text class="t" x="173" y="102" font-size="13" fill="#edebfa" text-anchor="start">服装图一键上身试穿</text>
  <text class="t" x="341" y="102" font-size="13" fill="#edebfa" text-anchor="start">服装平铺图 + 参考图 → 模特上身商拍图</text>
  <rect x="746" y="89" width="91" height="19" rx="4.0" fill="#222130"/>
  <text class="t" x="752" y="102" font-size="12" fill="#edebfa" text-anchor="start">gpt-image-2</text>
  <rect x="20" y="113" width="840" height="35" rx="5.0" fill="#222130"/>
  <text class="t" x="28" y="137" font-size="13" fill="#edebfa" text-anchor="start">wear-everything</text>
  <text class="t" x="173" y="137" font-size="13" fill="#edebfa" text-anchor="start">鞋包配饰真人穿戴</text>
  <text class="t" x="341" y="137" font-size="13" fill="#edebfa" text-anchor="start">商品图 + 参考图 → 真人佩戴图</text>
  <rect x="746" y="124" width="91" height="19" rx="4.0" fill="#222130"/>
  <text class="t" x="752" y="137" font-size="12" fill="#edebfa" text-anchor="start">gpt-image-2</text>
  <text class="t" x="28" y="172" font-size="13" fill="#edebfa" text-anchor="start">image-fusion</text>
  <text class="t" x="173" y="172" font-size="13" fill="#edebfa" text-anchor="start">多单品自由搭配融图</text>
  <text class="t" x="341" y="172" font-size="13" fill="#edebfa" text-anchor="start">最多 8 张单品 → 一整套 Look 模特图</text>
  <rect x="746" y="159" width="98" height="19" rx="4.0" fill="#222130"/>
  <text class="t" x="752" y="172" font-size="12" fill="#edebfa" text-anchor="start">seedream-5.0</text>
  <rect x="28" y="183" width="824" height="1" fill="#35334a"/>
</svg>
